<svg xmlns="http://www.w3.org/2000/svg" viewBox="0 0 480 300" role="img" aria-label="Rapporter til myndigheder">
  <title>Rapporter til myndigheder</title>
  <rect x="0" y="0" width="480" height="300" rx="18" fill="#f1f6f1"/>
  <rect x="24" y="24" width="432" height="48" rx="12" fill="#2e7d32"/>
  <text x="240" y="54" text-anchor="middle" font-size="19" font-weight="700" fill="#ffffff" font-family="Inter, Arial, sans-serif">Rapporter til myndigheder</text>
    <rect x="24" y="100" width="128" height="150" rx="12" fill="#e8f5e9" stroke="#2e7d32" stroke-width="1.5"/>
    <circle cx="88" cy="142" r="21" fill="#2e7d32"/>
    <text x="88" y="149" text-anchor="middle" font-size="19" font-weight="700" fill="#ffffff" font-family="Inter, Arial, sans-serif">1</text>
    <text x="88" y="188" text-anchor="middle" font-size="12.5" font-weight="600" fill="#182118" font-family="Inter, Arial, sans-serif"><tspan x="88" dy="0">Vælg periode</tspan></text>
    <rect x="176" y="100" width="128" height="150" rx="12" fill="#e8f5e9" stroke="#2e7d32" stroke-width="1.5"/>
    <circle cx="240" cy="142" r="21" fill="#2e7d32"/>
    <text x="240" y="149" text-anchor="middle" font-size="19" font-weight="700" fill="#ffffff" font-family="Inter, Arial, sans-serif">2</text>
    <text x="240" y="188" text-anchor="middle" font-size="12.5" font-weight="600" fill="#182118" font-family="Inter, Arial, sans-serif"><tspan x="240" dy="0">Gennemgå</tspan></text>
    <rect x="328" y="100" width="128" height="150" rx="12" fill="#e8f5e9" stroke="#2e7d32" stroke-width="1.5"/>
    <circle cx="392" cy="142" r="21" fill="#2e7d32"/>
    <text x="392" y="149" text-anchor="middle" font-size="19" font-weight="700" fill="#ffffff" font-family="Inter, Arial, sans-serif">3</text>
    <text x="392" y="188" text-anchor="middle" font-size="12.5" font-weight="600" fill="#182118" font-family="Inter, Arial, sans-serif"><tspan x="392" dy="0">Eksportér / vis</tspan></text>
    <line x1="155" y1="142" x2="168" y2="142" stroke="#2e7d32" stroke-width="3" stroke-linecap="round"/>
    <path d="M166 136 L174 142 L166 148 Z" fill="#2e7d32"/>
    <line x1="307" y1="142" x2="320" y2="142" stroke="#2e7d32" stroke-width="3" stroke-linecap="round"/>
    <path d="M318 136 L326 142 L318 148 Z" fill="#2e7d32"/>
</svg>
