<svg width="1600" height="500" viewBox="0 0 1600 500" fill="none" xmlns="http://www.w3.org/2000/svg" role="img" aria-label="Madkontrollen Pro logo">
  <defs>
    <linearGradient id="panelGrad" x1="120" y1="120" x2="320" y2="320" gradientUnits="userSpaceOnUse">
      <stop offset="0" stop-color="#25B7C4"/>
      <stop offset="1" stop-color="#0A4E8A"/>
    </linearGradient>
    <linearGradient id="proGrad" x1="1120" y1="180" x2="1320" y2="330" gradientUnits="userSpaceOnUse">
      <stop offset="0" stop-color="#3EA86A"/>
      <stop offset="1" stop-color="#1E7B59"/>
    </linearGradient>
    <filter id="softShadow" x="0" y="0" width="1600" height="500" filterUnits="userSpaceOnUse">
      <feDropShadow dx="0" dy="10" stdDeviation="14" flood-color="#0F172A" flood-opacity="0.08"/>
    </filter>
  </defs>

  <rect width="1600" height="500" fill="#F7F9F8"/>

  <g filter="url(#softShadow)">
    <g transform="translate(120 96)">
      <rect x="0" y="0" rx="22" ry="22" width="190" height="190" fill="url(#panelGrad)"/>
      <circle cx="24" cy="24" r="7" fill="#EAF5F5" opacity="0.95"/>
      <circle cx="46" cy="24" r="7" fill="#EAF5F5" opacity="0.95"/>

      <rect x="24" y="48" width="78" height="110" rx="8" fill="#F8FCFB" opacity="0.98"/>
      <rect x="36" y="122" width="18" height="28" fill="#1683B0"/>
      <rect x="60" y="92" width="18" height="58" fill="#49B7C4"/>

      <circle cx="145" cy="62" r="28" fill="#F8FCFB"/>
      <path d="M132 62L141 71L159 51" stroke="#249A70" stroke-width="8" stroke-linecap="round" stroke-linejoin="round"/>

      <rect x="122" y="112" width="36" height="6" rx="3" fill="#F8FCFB" opacity="0.95"/>
      <rect x="110" y="132" width="48" height="6" rx="3" fill="#F8FCFB" opacity="0.95"/>
      <rect x="24" y="166" width="134" height="8" rx="4" fill="#F8FCFB" opacity="0.95"/>

      <g transform="translate(205 0)" fill="#3C4759">
        <rect x="9" y="0" width="10" height="66" rx="5"/>
        <rect x="25" y="0" width="10" height="66" rx="5"/>
        <rect x="41" y="0" width="10" height="66" rx="5"/>
        <rect x="18" y="56" width="24" height="120" rx="12"/>
      </g>

      <g transform="translate(275 0)" fill="#3C4759">
        <path d="M27 0C41 9 47 24 47 46V104C47 112 41 118 33 118H29V176C29 183 23 188 16 188H12C5 188 0 183 0 176V0H27Z"/>
      </g>
    </g>
  </g>

  <g font-family="Inter, Arial, Helvetica, sans-serif" dominant-baseline="middle">
    <text x="460" y="250" font-size="88" font-weight="800" fill="#2E3748" letter-spacing="-2">
      Madkontrollen
    </text>
    <text x="1160" y="250" font-size="84" font-style="italic" font-weight="700" fill="url(#proGrad)" letter-spacing="-2">
      Pro
    </text>
  </g>
</svg>
